<svg width="243" height="132" viewBox="0 0 243 132" fill="none" xmlns="http://www.w3.org/2000/svg">
<g clip-path="url(#clip0_120_85)">
<path d="M118.795 3.68266C119.222 3.77831 119.886 3.77831 120.219 3.68266C120.503 3.53918 120.171 3.44352 119.364 3.44352C118.605 3.44352 118.32 3.53918 118.795 3.68266Z" fill="black"/>
<path d="M124.822 4.11312C130.423 5.64355 136.83 9.99572 149.692 20.9957C163.74 33.0479 169.151 37.5435 171.619 39.2175C175.083 41.5609 173.09 39.7435 162.838 31.2783C152.777 23.0044 143 13.8218 141.434 11.1914C139.393 7.89138 140.817 7.55659 151.305 8.8479C170.242 11.2392 192.217 17.3609 202.041 23.0044C205.316 24.9175 208.686 28.2175 209.777 30.7522C212.293 36.3001 209.54 41.5609 201.851 45.8653C198.624 47.6827 200.285 47.3479 204.129 45.387C205.648 44.6218 207.784 42.9479 209.208 41.4175C210.537 39.9349 211.961 38.7392 212.388 38.7392C212.767 38.7392 215.805 39.4088 219.032 40.2218C222.26 41.0349 225.25 41.6088 225.677 41.4175C226.151 41.2262 226.389 40.5088 226.389 38.9783C226.389 32.1392 218.463 25.0609 203.987 18.9392C188.183 12.2436 164.547 7.46094 142.383 6.40877C137.732 6.21746 134.409 5.7392 130.328 4.73485C124.49 3.30007 119.981 2.82181 124.822 4.11312Z" fill="black"/>
<path d="M112.482 4.83041C110.489 5.30867 105.553 5.93041 101.329 6.21737C72.2355 8.13041 43.5217 15.0652 28.8562 23.7695C25.1543 25.9695 18.9844 31.4695 17.5131 33.9087L16.8486 35.0087L11.8652 33.7174C9.1125 33 6.59707 32.2348 6.26484 32.0913C5.41055 31.613 8.59043 28.0739 12.2924 25.3478C15.757 22.813 15.2824 22.1435 11.7229 24.4869C6.075 28.2652 0.474609 35.6304 0.474609 39.313C0.474609 40.6043 1.51875 41.2261 2.08828 40.2695C2.23066 40.0304 5.36309 40.6521 9.1125 41.7043C16.8486 43.7608 16.6113 43.7608 16.6113 42.8521C16.6113 42.0391 16.1842 42.1826 24.7746 40.1261L31.3242 38.5478L33.7922 41.2261C36.0703 43.6174 41.0537 46.8217 41.6232 46.2C41.7656 46.1043 41.0537 45.5304 40.0096 45.0521C35.7855 42.8521 32.2734 38.4043 32.2734 35.3435C32.2734 30.9913 35.4533 26.2087 40.2469 23.2435C48.1254 18.413 66.0182 13.0087 84.7652 9.7565C92.5963 8.41737 102.183 7.69998 102.658 8.46519C103.987 10.6174 94.115 20.2782 73.3271 37.113C70.7168 39.2652 68.2488 41.4174 67.8691 41.8956C67.2521 42.7087 67.2521 42.7565 67.8691 42.2782C69.293 41.2739 78.7852 33.4782 89.9385 24.1521C103.845 12.5304 110.299 7.65215 114.571 5.49998C118.225 3.63476 117.703 3.44345 112.482 4.83041Z" fill="black"/>
<path d="M118.89 11.9087C116.706 12.4826 112.055 14.9696 107.689 17.9826C101.661 22.1435 96.2982 26.3044 96.5355 26.687C96.6304 26.8783 95.6812 28.4087 94.3997 30.0826C93.1183 31.7565 91.4097 34.5304 90.5554 36.3C88.9892 39.4565 88.9892 39.5044 84.7652 41.5131C82.4396 42.6131 80.4937 43.4739 80.3988 43.4261C80.3513 43.3304 80.2089 42.7087 80.1614 42.0391C80.0191 40.8913 80.731 40.0783 85.9042 35.6304C89.179 32.8087 92.8335 29.7 94.0675 28.7913C95.3015 27.8348 96.2507 26.9739 96.1083 26.8783C95.5862 26.3044 66.73 51.5565 64.7366 54.3304C63.5027 56.1 62.8382 57.4391 63.74 56.2913C64.6417 55.1913 85.7618 46.5348 87.2806 46.5826C88.0874 46.6304 88.4671 46.3435 88.562 45.6739C88.657 45.1478 89.3214 44.1913 90.0333 43.6174C90.7452 42.9957 93.2132 40.8435 95.4913 38.8826C97.7695 36.8739 99.9527 35.0087 100.332 34.7218C100.712 34.4348 103.607 30.1304 106.74 25.1565C109.919 20.1826 112.72 15.8304 113.004 15.4957C113.289 15.1131 114.666 14.3 116.042 13.6304C119.791 11.8609 123.303 11.9565 127.243 13.9652L130.28 15.5435L135.833 24.3913C141.956 34.0522 142.857 35.1522 149.407 40.5565C151.827 42.6131 153.916 44.7174 154.058 45.3391C154.248 46.0087 154.817 46.487 155.624 46.6783C156.289 46.8218 162.032 49.0218 168.344 51.5087C177.741 55.287 179.877 56.2913 180.019 57.1044C180.209 57.9174 180.257 57.9174 180.304 56.8652C180.351 55.8609 179.26 54.6652 174.561 50.3609C167.822 44.2391 158.899 36.4913 153.489 32.0913C148.6 28.1696 151.068 30.4652 158.804 37.0652C162.174 39.9348 166.73 44.0957 168.961 46.2957L172.995 50.2174L168.961 47.6826C157.665 40.5565 157.808 40.6522 155.624 37.1131C154.485 35.2957 152.35 32.3783 150.878 30.7044C146.085 25.2522 130.66 14.3957 124.87 12.4348C121.832 11.4304 121.168 11.3826 118.89 11.9087Z" fill="black"/>
<path d="M88.5146 21.0914C81.4429 27.0696 68.9132 37.4001 59.7058 44.8131C58.6616 45.674 58.0921 46.3914 58.4718 46.3914C60.4651 46.3914 71.8558 37.8783 82.3446 28.5522C87.9925 23.4827 97.8169 13.8696 97.2948 13.8696C97.1524 13.8696 93.2132 17.1218 88.5146 21.0914Z" fill="black"/>
<path d="M152.112 19.8956C158.14 25.8739 165.211 32.1869 172.046 37.5435C177.361 41.7521 183.531 45.913 184.338 45.8652C184.623 45.8652 184.338 45.4826 183.674 45.0521C181.301 43.4261 168.059 32.6652 161.842 27.2608C151.021 17.9348 149.929 17.0261 148.363 15.8304C147.556 15.2565 149.265 17.0739 152.112 19.8956Z" fill="black"/>
<path d="M228.762 23.8174C231.277 25.587 235.359 29.2218 236.308 30.5609L237.352 31.9957L234.599 32.8087C233.081 33.2392 230.708 33.9087 229.331 34.2913C226.958 34.9609 226.863 35.0566 227.196 36.2522C227.433 36.9696 227.575 38.8826 227.575 40.4609L227.528 43.3783L230.66 42.5174C232.369 42.0392 235.311 41.2261 237.21 40.7C239.061 40.2218 240.627 39.9826 240.627 40.2218C240.627 40.4609 241.102 40.6522 241.624 40.6522C242.573 40.6522 242.62 40.4609 242.336 38.6913C241.671 34.6261 238.634 30.3218 233.366 26.0653C231.23 24.3435 229.094 22.9566 228.524 23.0044C227.623 23.0044 227.67 23.0522 228.762 23.8174Z" fill="black"/>
<path d="M18.5097 47.7304C18.5097 48.0652 19.1742 49.6435 19.981 51.2217C21.215 53.7087 21.2624 54.0913 20.5505 53.8522C15.8993 52.513 6.92923 50.2174 6.78685 50.4087C6.50208 50.6478 12.5296 55.8609 15.4722 57.9174C16.7536 58.7783 20.0759 60.7391 22.9236 62.1739C25.7238 63.6565 27.907 64.9956 27.7646 65.1391C27.1001 65.8087 41.5757 70.6391 52.4443 73.3652C73.1847 78.5783 95.5863 81.0652 121.5 81.0174C148.031 80.9696 168.391 78.7696 189.132 73.7C199.763 71.0696 215.473 65.8565 214.761 65.1391C214.618 64.9956 217.039 63.5609 220.076 61.9348C227.101 58.3 230.233 56.1956 234.03 52.6087L237.067 49.787L231.135 51.3652C227.86 52.2739 224.348 53.1826 223.351 53.4696C222.307 53.8043 221.405 53.9478 221.31 53.8522C221.215 53.7565 221.595 52.8956 222.165 51.9391C222.687 50.9826 223.019 50.2174 222.877 50.2174C222.734 50.2174 221.31 51.2696 219.744 52.5609C212.34 58.5391 200.617 62.5565 177.741 66.9087C139.725 74.0826 101.566 74.0826 65.7333 66.9087C41.2435 61.9826 28.7138 57.1043 20.7878 49.3565C19.5064 48.113 18.5097 47.3956 18.5097 47.7304Z" fill="black"/>
<path d="M85.9044 55.5261C82.9144 56.2913 78.548 57.2478 76.2698 57.6783C73.9917 58.1087 72.1882 58.5391 72.2831 58.6826C72.473 58.8261 90.6505 55.7652 92.2642 55.3348C92.454 55.2391 92.3591 55 92.0269 54.713C91.5523 54.3304 89.7962 54.5696 85.9044 55.5261Z" fill="black"/>
<path d="M63.5977 58.0609C63.5977 58.4435 63.7875 58.8739 64.0248 59.0174C64.2621 59.2087 64.357 58.8739 64.2146 58.3478C63.9299 57.2478 63.5977 57.1043 63.5977 58.0609Z" fill="black"/>
<path d="M70.1474 59.1609C70.4796 59.3044 70.9068 59.2566 71.0491 59.1131C71.239 58.9696 70.9542 58.8261 70.4321 58.874C69.9101 58.874 69.7677 59.0174 70.1474 59.1609Z" fill="black"/>
<path d="M141.433 65.6652C138.443 65.8565 126.958 65.9522 115.899 65.8565C101.709 65.7609 95.9184 65.8565 96.0134 66.1913C96.2507 67.0044 100.997 67.3391 115.662 67.7217C124.68 67.9609 131.941 67.8652 137.969 67.4348C142.857 67.1478 146.986 66.8131 147.034 66.7174C147.129 66.6217 147.129 66.287 147.034 65.9044C146.939 65.4261 145.8 65.3783 141.433 65.6652Z" fill="black"/>
<path d="M3.22734 100.722C0.664453 102.109 0.474609 103.113 0.474609 116.122C0.474609 127.648 0.52207 128.078 1.51875 129.37C3.51211 131.952 4.08164 132 24.2051 132H42.7623L42.6199 128.27L42.4775 124.587L25.0119 124.443L7.59375 124.348L7.68867 115.835L7.83106 107.37L25.2492 107.226L42.7148 107.13V103.543V99.9565H23.6355C7.64121 100.004 4.31895 100.1 3.22734 100.722Z" fill="black"/>
<path d="M48.4102 115.978V132H51.9697H55.5293V125.783V119.565H69.7676H84.0059V125.783V132H87.5654H91.125V115.978V99.9565H87.5654H84.0059V105.935V111.913H69.7676H55.5293V105.935V99.9565H51.9697H48.4102V115.978Z" fill="black"/>
<path d="M99.8579 100.865C97.3899 102.396 97.2475 103.4 97.3899 116.552C97.5323 127.743 97.5798 128.604 98.4815 129.609C100.522 131.904 101.234 132 121.263 132H140.01V128.652V125.304H122.971C113.574 125.304 105.601 125.161 105.174 125.017C104.604 124.778 104.414 124.013 104.414 121.909V119.087H120.551H136.688V115.739V112.391H120.551H104.367L104.509 109.617L104.651 106.891L122.354 106.748L140.01 106.652V103.304V99.9565H120.693C102.563 99.9565 101.234 100.004 99.8579 100.865Z" fill="black"/>
<path d="M145.705 115.978V132H149.265H152.824V119.326V106.652H167.727C184.148 106.652 183.199 106.461 183.199 109.713C183.199 112.917 183.531 112.87 167.774 112.965L153.489 113.109L165.496 122.578L177.456 132.048L183.294 131.904L189.132 131.761L180.399 125.304L171.714 118.848L178.311 118.609C185.572 118.322 186.711 117.939 188.42 115.117C189.179 113.922 189.369 112.726 189.369 109.378C189.369 104.644 188.705 102.539 186.759 101.009C185.477 99.9565 185.24 99.9565 165.591 99.9565H145.705V115.978Z" fill="black"/>
<path d="M201.614 110.383L212.198 120.761L212.15 126.357V132H216.659H221.168V126.357L221.121 120.761L231.704 110.383L242.288 100.004L237.115 99.9565H231.894L224.68 107.13C220.741 111.052 217.276 114.304 217.039 114.304C216.754 114.304 213.147 111.1 209.018 107.13L201.472 100.004H196.251H191.03L201.614 110.383Z" fill="black"/>
</g>
<defs>
<clipPath id="clip0_120_85">
<rect width="243" height="132" fill="white"/>
</clipPath>
</defs>
</svg>
