<svg width="194" height="21" viewBox="0 0 194 21" fill="none" xmlns="http://www.w3.org/2000/svg">
<path d="M9.96986 15.7165H13.6841C13.9774 15.7165 14.2706 15.6168 14.5638 15.5171C14.857 15.4173 15.0525 15.2179 15.1503 15.0184H15.8345L14.9548 18.7087C14.857 19.4069 14.5638 19.8058 14.1728 20.105C13.6841 20.504 12.9022 20.6037 11.9247 20.6037H5.3759C3.42103 20.6037 2.05262 20.2048 1.17293 19.4069C0.390976 18.7087 0 17.7113 0 16.315C0 15.4173 0.195487 14.3202 0.488719 13.0236L2.05262 5.94217C2.4436 4.04714 3.22554 2.6508 4.39847 1.65341C5.47365 0.755766 6.64657 0.25708 8.01499 0.25708H17.8871C17.7894 0.656034 17.6916 1.15473 17.5939 1.75316C17.4961 2.35159 17.3006 2.85028 17.2029 3.24923C17.0074 3.84767 16.8119 4.24662 16.6164 4.54584C16.3232 4.84505 15.8345 5.04453 15.1503 5.04453H12.1202C11.436 5.04453 10.9473 5.24401 10.6541 5.54322C10.3608 5.84244 10.1653 6.34113 9.96986 7.0393L8.40596 14.021C8.30822 14.2205 8.30822 14.4199 8.30822 14.6194C8.5037 15.3176 8.99242 15.7165 9.96986 15.7165Z" fill="white"/>
<path d="M29.1275 11.5277H27.0748L25.4132 18.8086V19.0081C25.4132 19.2075 25.5109 19.407 25.7064 19.6065C25.9019 19.806 26.0974 19.806 26.2929 19.806L26.1951 20.5041H18.0824C17.3982 20.5041 17.105 20.2049 17.105 19.6065C17.105 19.5067 17.105 19.3073 17.2027 19.1078L21.2102 1.75329C21.2102 1.55382 21.2102 1.35433 20.917 1.15486C20.7215 0.955379 20.526 0.855637 20.2328 0.855637L20.4283 0.157471H28.541C29.1275 0.157471 29.4207 0.456695 29.4207 1.05513C29.4207 1.15486 29.4207 1.2546 29.4207 1.55382L27.9545 7.63786H30.0072L31.3756 1.75329C31.3756 1.55382 31.3756 1.35433 31.1801 1.15486C30.9846 0.955379 30.7891 0.855637 30.5936 0.855637L30.6914 0.157471H38.8041C39.0973 0.157471 39.3905 0.257212 39.4883 0.456689C39.586 0.656166 39.6838 0.85564 39.6838 1.15486L39.586 1.55382L35.6763 18.9083C35.6763 19.1078 35.6763 19.3073 35.9695 19.5067C36.165 19.7062 36.3605 19.806 36.6537 19.806L36.4582 20.5041H28.2478C27.6613 20.5041 27.2703 20.2049 27.2703 19.5067C27.2703 19.407 27.2703 19.3073 27.2703 19.0081L29.1275 11.5277Z" fill="white"/>
<path d="M51.4133 1.55382L47.4058 18.9083C47.4058 19.1078 47.4058 19.3073 47.699 19.5067C47.8945 19.7062 48.09 19.806 48.3832 19.806L48.1877 20.5041H40.075C39.4885 20.5041 39.1953 20.2049 39.1953 19.6065C39.1953 19.5067 39.1953 19.407 39.2931 19.1078L43.3006 1.75329C43.3006 1.55382 43.3005 1.35433 43.1051 1.15486C42.9096 0.955379 42.7141 0.855637 42.5186 0.855637L42.6163 0.157471H50.7291C51.0223 0.157471 51.3155 0.257212 51.4133 0.456689C51.511 0.656166 51.6088 0.85564 51.6088 1.15486L51.4133 1.55382Z" fill="white"/>
<path d="M74.1873 2.05251L69.8866 20.6039H64.6084C64.022 20.6039 63.5333 20.5041 63.1423 20.4044C62.7513 20.2049 62.4581 20.0054 62.3603 19.5067L59.428 12.2258L57.7664 18.8086L57.6686 19.3073C57.6686 19.5067 57.7664 19.7062 57.9619 19.806C58.1574 19.9057 58.3528 20.0054 58.6461 20.0054L58.5483 20.7036H51.9995C51.7063 20.7036 51.413 20.6039 51.2176 20.4044C51.0221 20.2049 50.9243 20.0054 50.9243 19.6065C50.9243 19.5067 50.9243 19.3073 51.0221 19.1078L54.9318 1.85302C54.9318 1.65355 54.9318 1.45408 54.7363 1.2546C54.5408 1.05512 54.3454 0.955382 54.0521 0.955382L54.2476 0.257215H61.5784C61.7739 0.257215 62.0671 0.356957 62.3603 0.556434C62.6536 0.755911 62.8491 1.05512 62.9468 1.2546L66.0746 8.73499L67.443 2.35171C67.443 2.25198 67.5407 2.05251 67.5407 1.75329C67.5407 1.55382 67.443 1.35433 67.2475 1.15486C67.052 0.955379 66.8565 0.855637 66.5633 0.855637L66.7588 0.157471H73.2099C73.5031 0.157471 73.7963 0.257212 73.8941 0.456689C74.0896 0.656166 74.1873 0.955379 74.1873 1.15486V2.05251Z" fill="white"/>
<path d="M92.3679 20.6037H84.8416C84.3529 20.6037 83.9619 20.504 83.7665 20.3045C83.571 20.105 83.3755 19.8058 83.3755 19.4069L83.0822 16.4147H79.759L78.586 18.8084C78.586 18.9082 78.586 18.9082 78.586 18.9082C78.586 18.9082 78.586 19.0079 78.586 19.1077C78.586 19.3071 78.6838 19.4069 78.8793 19.6064C79.0748 19.7061 79.2702 19.8058 79.4657 19.8058L79.368 20.504H73.1124C72.3304 20.504 71.9395 20.2048 71.9395 19.5066C71.9395 19.3071 71.9395 19.1077 72.0372 18.9082L80.5409 2.05239C80.6386 1.95265 80.6386 1.75316 80.6386 1.65342C80.6386 1.45395 80.5409 1.25448 80.3454 1.055C80.1499 0.855525 79.9544 0.755784 79.759 0.755784L79.9544 0.0576172H88.5559C89.0446 0.0576172 89.3378 0.15735 89.7288 0.456565C90.022 0.656042 90.2175 1.055 90.2175 1.55369L91.5859 18.8084C91.5859 19.1077 91.6837 19.3071 91.9769 19.5066C92.2701 19.7061 92.5634 19.8058 92.8566 19.8058L92.3679 20.6037ZM82.789 9.13381L81.3229 12.4252H82.9845L82.789 9.13381Z" fill="white"/>
<path d="M105.661 0.157471H118.075C120.029 0.157471 121.496 0.656163 122.375 1.65355C123.157 2.55119 123.548 3.94754 123.548 5.74283C123.548 6.441 123.45 7.23891 123.353 8.03682C123.255 8.93447 123.059 9.83211 122.864 10.7298C121.984 14.6196 121.105 17.2128 120.225 18.5094C119.345 19.806 118.075 20.4044 116.413 20.4044H103.511C103.218 20.4044 102.924 20.3046 102.729 20.1052C102.533 19.9057 102.436 19.7062 102.436 19.3073C102.436 19.2075 102.436 19.008 102.533 18.8086L106.443 1.55382C106.443 1.35434 106.443 1.15486 106.248 0.955382C106.052 0.755905 105.857 0.656163 105.563 0.656163L105.661 0.157471ZM111.428 15.7167H112.405C112.796 15.7167 113.09 15.6169 113.383 15.3177C113.578 15.1182 113.774 14.7193 113.872 14.1209L115.533 6.74022C115.631 6.441 115.631 6.04204 115.631 5.84256C115.631 5.24413 115.24 4.94492 114.556 4.94492H113.872L111.428 15.7167Z" fill="white"/>
<path d="M140.36 12.2258L141.338 14.9188C141.435 15.1182 141.631 15.3177 141.924 15.5172C142.217 15.7167 142.413 15.8164 142.706 15.8164H143.586L142.901 19.2075C142.706 20.1052 142.022 20.6039 140.849 20.6039H136.939C136.45 20.6039 135.962 20.5041 135.668 20.2049C135.277 19.9057 135.082 19.6065 134.984 19.2075L133.323 13.1235L132.052 18.9083V19.2075C132.052 19.407 132.15 19.6065 132.345 19.7062C132.541 19.806 132.736 19.9057 132.932 19.9057L132.834 20.6039H124.819C124.526 20.6039 124.232 20.5041 124.037 20.3046C123.841 20.1052 123.744 19.9057 123.744 19.5067C123.744 19.407 123.744 19.2075 123.841 19.0081L127.751 1.75329C127.751 1.55382 127.751 1.35433 127.556 1.15486C127.36 0.955379 127.165 0.855637 126.871 0.855637L127.067 0.157471H140.458C143.488 0.157471 144.954 1.55381 144.954 4.44623C144.954 4.84518 144.954 5.1444 144.856 5.44361C144.759 5.94231 144.661 6.34126 144.661 6.64047C144.27 8.43577 143.781 9.73238 143.097 10.5303C142.413 11.3282 141.533 11.9266 140.36 12.2258ZM135.18 4.74545L134.3 8.43577H135.473C136.157 8.43577 136.548 7.83734 136.841 6.74022C136.841 6.54074 136.939 6.34126 136.939 6.14178C136.939 5.9423 137.037 5.74283 137.037 5.64309C137.037 5.04466 136.841 4.84518 136.353 4.84518H135.18V4.74545Z" fill="white"/>
<path d="M156.976 1.55382L152.969 18.9083C152.969 19.1078 152.969 19.3073 153.262 19.5067C153.458 19.7062 153.653 19.806 153.946 19.806L153.751 20.5041H145.638C145.052 20.5041 144.661 20.2049 144.661 19.6065C144.661 19.5067 144.661 19.407 144.758 19.1078L148.766 1.75329C148.766 1.55382 148.766 1.35433 148.57 1.15486C148.375 0.955379 148.179 0.855637 147.984 0.855637L148.082 0.157471H156.194C156.488 0.157471 156.781 0.257212 156.879 0.456689C156.976 0.656166 157.074 0.85564 157.074 1.15486L156.976 1.55382Z" fill="white"/>
<path d="M160.495 19.5066L158.442 2.05238C158.442 1.65342 158.247 1.45394 158.051 1.25446C157.856 1.05499 157.563 0.955246 157.27 0.955246L157.367 0.25708H165.48C165.773 0.25708 165.969 0.356812 166.164 0.656028C166.36 0.955243 166.555 1.15472 166.555 1.45394L166.751 9.23354L169.585 2.45132L169.683 1.95263C169.683 1.75315 169.585 1.45394 169.39 1.25446C169.194 1.05499 168.999 0.955246 168.803 0.955246L168.901 0.25708H174.766C175.157 0.25708 175.352 0.356812 175.645 0.656028C175.841 0.955243 175.939 1.15472 175.939 1.45394L175.841 2.05238L167.337 20.6037H161.863C161.375 20.6037 161.082 20.504 160.788 20.3045C160.691 20.105 160.495 19.8058 160.495 19.5066Z" fill="white"/>
<path d="M177.698 0.157471H193.044L192.262 3.44884C192.164 4.04727 191.871 4.34649 191.48 4.6457C191.089 4.84518 190.6 4.94492 189.916 4.94492H185.908L185.224 7.7376H190.014L189.427 10.2311C189.329 10.63 189.036 11.029 188.645 11.3282C188.254 11.6274 187.765 11.7271 187.277 11.7271H185.615C184.833 11.7271 184.344 12.1261 184.149 13.0237L183.465 15.9162H188.156C188.45 15.9162 188.743 15.8164 189.036 15.7167C189.329 15.6169 189.525 15.4175 189.623 15.218H190.307L189.232 19.7062C189.134 20.1052 188.938 20.4044 188.547 20.5041C188.254 20.6039 187.765 20.7036 187.277 20.7036H175.352C175.059 20.7036 174.766 20.6039 174.57 20.4044C174.375 20.2049 174.277 20.0054 174.277 19.6065C174.277 19.5067 174.277 19.3073 174.375 19.1078L178.284 1.85302C178.284 1.65355 178.284 1.45408 178.089 1.2546C177.893 1.05512 177.698 0.955382 177.405 0.955382L177.698 0.157471Z" fill="white"/>
</svg>
