<svg width="350" height="37" viewBox="0 0 350 37" fill="none" xmlns="http://www.w3.org/2000/svg">
<g clip-path="url(#clip0_121_108)">
<path d="M126.285 0L105.481 13.6772L84.691 0H70.5858L98.4356 18.3214L70.5858 36.6428H84.691L105.481 22.9655L126.285 36.6428H140.391L112.541 18.3214L140.391 0H126.285Z" fill="#666666"/>
<path d="M0.78114 7.82104V28.8217C0.779162 29.8493 1.01598 30.867 1.47803 31.8167C1.94008 32.7663 2.61828 33.6292 3.47373 34.3558C4.32918 35.0823 5.34507 35.6584 6.46315 36.0508C7.58122 36.4433 8.77951 36.6444 9.9893 36.6428H64.2919V29.9828H15.8927C14.6867 29.9627 13.5383 29.5407 12.6953 28.808C11.8523 28.0752 11.3821 27.0904 11.3863 26.0659V21.3707H60.4464V14.7107H11.3863V10.5769C11.3861 9.55455 11.8579 8.57297 12.7006 7.84296C13.5432 7.11295 14.6893 6.69278 15.8927 6.67273H64.2468V0H9.9893C7.54715 0 5.205 0.824006 3.47813 2.29073C1.75127 3.75746 0.78114 5.74677 0.78114 7.82104ZM146.685 7.82104V28.8217C146.685 30.896 147.655 32.8853 149.382 34.352C151.108 35.8188 153.451 36.6428 155.893 36.6428H210.195V29.9828H161.841C161.236 29.9828 160.637 29.8813 160.079 29.6843C159.52 29.4874 159.013 29.1986 158.586 28.8348C158.159 28.4709 157.82 28.039 157.59 27.5638C157.36 27.0887 157.243 26.5796 157.245 26.0659V21.3707H206.305V14.7107H157.245V10.5769C157.245 10.0642 157.364 9.55652 157.595 9.08285C157.826 8.60917 158.164 8.17878 158.591 7.81625C159.018 7.45372 159.525 7.16613 160.082 6.96993C160.64 6.77373 161.238 6.67273 161.841 6.67273H210.195V0H155.893C153.452 0.00337386 151.112 0.828436 149.386 2.29443C147.66 3.76043 146.689 5.74781 146.685 7.82104ZM340.687 0H286.384V36.6428H340.687C341.897 36.6444 343.095 36.4433 344.213 36.0508C345.331 35.6584 346.347 35.0823 347.202 34.3558C348.058 33.6292 348.736 32.7663 349.198 31.8167C349.66 30.867 349.897 29.8493 349.895 28.8217V7.82104C349.895 5.74677 348.925 3.75746 347.198 2.29073C345.471 0.824006 343.129 0 340.687 0ZM339.335 26.0786C339.335 27.1141 338.851 28.1071 337.988 28.8392C337.126 29.5714 335.957 29.9828 334.738 29.9828H296.944V6.67273H334.738C335.957 6.67273 337.126 7.08408 337.988 7.81625C338.851 8.54842 339.335 9.54143 339.335 10.5769V26.0786ZM216.579 7.82104V28.8217C216.579 30.896 217.55 32.8853 219.276 34.352C221.003 35.8188 223.345 36.6428 225.788 36.6428H280.09V29.9828H231.736C231.131 29.9828 230.532 29.8813 229.974 29.6843C229.415 29.4874 228.908 29.1986 228.481 28.8348C228.053 28.4709 227.715 28.039 227.485 27.5638C227.255 27.0887 227.138 26.5796 227.14 26.0659V21.3707H276.2V14.7107H227.14V10.5769C227.14 10.0642 227.258 9.55652 227.489 9.08285C227.72 8.60917 228.059 8.17878 228.486 7.81625C228.913 7.45372 229.419 7.16613 229.977 6.96993C230.535 6.77373 231.132 6.67273 231.736 6.67273H280.09V0H225.788C223.347 0.00337386 221.007 0.828436 219.281 2.29443C217.555 3.76043 216.583 5.74781 216.579 7.82104Z" fill="#666666"/>
<path d="M125.504 0L104.715 13.6772L83.9098 0H69.8047L97.6545 18.3214L69.8047 36.6428H83.9098L104.715 22.9655L125.504 36.6428H139.609L111.76 18.3214L139.609 0H125.504Z" fill="url(#paint0_linear_121_108)"/>
<path d="M0 7.82104V28.8217C0 30.896 0.97015 32.8853 2.69701 34.352C4.42388 35.8188 6.76601 36.6428 9.20816 36.6428H63.5107V29.9828H15.1717C14.5655 29.9844 13.9649 29.8843 13.4045 29.688C12.8441 29.4918 12.335 29.2033 11.9064 28.8393C11.4777 28.4752 11.1381 28.0427 10.9071 27.5668C10.676 27.0908 10.5581 26.5807 10.5601 26.0659V21.3707H59.6202V14.7107H10.5601V10.5769C10.5601 10.0631 10.6795 9.55439 10.9114 9.07989C11.1434 8.60538 11.4833 8.17444 11.9117 7.81174C12.3401 7.44904 12.8486 7.16172 13.408 6.96627C13.9674 6.77082 14.5668 6.67105 15.1717 6.67273H63.5107V0H9.20816C6.76723 0.00337386 4.4274 0.828436 2.70139 2.29443C0.975388 3.76043 0.00397224 5.74781 0 7.82104Z" fill="url(#paint1_linear_121_108)"/>
<path d="M145.903 7.82104V28.8217C145.903 29.8499 146.142 30.8679 146.606 31.8176C147.07 32.7673 147.749 33.6301 148.606 34.3565C149.462 35.083 150.479 35.6588 151.598 36.0511C152.717 36.4434 153.916 36.6444 155.127 36.6428H209.429V29.9828H161.075C160.469 29.9844 159.868 29.8843 159.308 29.688C158.748 29.4918 158.238 29.2033 157.81 28.8393C157.381 28.4752 157.042 28.0427 156.811 27.5668C156.579 27.0908 156.462 26.5807 156.464 26.0659V21.3707H205.524V14.7107H156.464V10.5769C156.464 10.0631 156.583 9.55439 156.815 9.07989C157.047 8.60538 157.387 8.17443 157.815 7.81173C158.244 7.44903 158.752 7.16172 159.311 6.96627C159.871 6.77082 160.47 6.67105 161.075 6.67273H209.429V0H155.127C152.683 -2.7526e-06 150.339 0.823593 148.61 2.28996C146.881 3.75632 145.907 5.7456 145.903 7.82104Z" fill="url(#paint2_linear_121_108)"/>
<path d="M339.906 0H285.603V36.6428H339.906C341.116 36.6444 342.315 36.4434 343.434 36.0511C344.553 35.6588 345.57 35.083 346.426 34.3565C347.283 33.6301 347.963 32.7673 348.426 31.8176C348.89 30.8679 349.129 29.8499 349.129 28.8217V7.82104C349.125 5.7456 348.151 3.75632 346.422 2.28996C344.693 0.823593 342.349 -2.7526e-06 339.906 0ZM338.569 26.0786C338.569 26.5924 338.449 27.1011 338.217 27.5756C337.985 28.0501 337.646 28.4811 337.217 28.8438C336.789 29.2065 336.28 29.4938 335.721 29.6892C335.161 29.8847 334.562 29.9844 333.957 29.9828H296.163V6.67273H333.957C334.562 6.67105 335.161 6.77082 335.721 6.96627C336.28 7.16172 336.789 7.44903 337.217 7.81173C337.646 8.17443 337.985 8.60538 338.217 9.07989C338.449 9.55439 338.569 10.0631 338.569 10.5769V26.0786Z" fill="url(#paint3_linear_121_108)"/>
<path d="M215.798 7.82104V28.8217C215.798 29.8499 216.037 30.8679 216.501 31.8176C216.964 32.7673 217.644 33.6301 218.501 34.3565C219.357 35.083 220.374 35.6588 221.493 36.0511C222.612 36.4434 223.811 36.6444 225.021 36.6428H279.309V29.9828H230.97C230.364 29.9844 229.763 29.8843 229.203 29.688C228.642 29.4918 228.133 29.2033 227.705 28.8393C227.276 28.4752 226.936 28.0427 226.705 27.5668C226.474 27.0908 226.356 26.5807 226.358 26.0659V21.3707H275.418V14.7107H226.358V10.5769C226.358 10.0631 226.478 9.55439 226.71 9.07989C226.942 8.60538 227.282 8.17443 227.71 7.81173C228.138 7.44903 228.647 7.16172 229.206 6.96627C229.766 6.77082 230.365 6.67105 230.97 6.67273H279.309V0H225.021C222.578 -2.7526e-06 220.234 0.823593 218.505 2.28996C216.776 3.75632 215.802 5.7456 215.798 7.82104Z" fill="url(#paint4_linear_121_108)"/>
</g>
<defs>
<linearGradient id="paint0_linear_121_108" x1="104.715" y1="0" x2="104.715" y2="36.6428" gradientUnits="userSpaceOnUse">
<stop stop-color="#E3B69F"/>
<stop offset="1" stop-color="#C38A6E"/>
</linearGradient>
<linearGradient id="paint1_linear_121_108" x1="31.7554" y1="0" x2="31.7554" y2="36.6428" gradientUnits="userSpaceOnUse">
<stop stop-color="#E3B69F"/>
<stop offset="1" stop-color="#C38A6E"/>
</linearGradient>
<linearGradient id="paint2_linear_121_108" x1="177.659" y1="0" x2="177.659" y2="36.6428" gradientUnits="userSpaceOnUse">
<stop stop-color="#E3B69F"/>
<stop offset="1" stop-color="#C38A6E"/>
</linearGradient>
<linearGradient id="paint3_linear_121_108" x1="317.373" y1="0" x2="317.373" y2="36.6428" gradientUnits="userSpaceOnUse">
<stop stop-color="#E3B69F"/>
<stop offset="1" stop-color="#C38A6E"/>
</linearGradient>
<linearGradient id="paint4_linear_121_108" x1="247.554" y1="0" x2="247.554" y2="36.6428" gradientUnits="userSpaceOnUse">
<stop stop-color="#E3B69F"/>
<stop offset="1" stop-color="#C38A6E"/>
</linearGradient>
<clipPath id="clip0_121_108">
<rect width="350" height="37" fill="white"/>
</clipPath>
</defs>
</svg>
