<svg width="242" height="128" viewBox="0 0 242 128" fill="none" xmlns="http://www.w3.org/2000/svg">
<path d="M241.797 63.2633C241.797 68.5298 240.705 72.8394 238.758 77.2759C236.197 83.1036 232.856 87.4209 228.968 91.4533C223.763 96.8495 218.165 100.901 212.222 104.458C204.875 108.856 197.348 112.194 189.607 114.963C168.037 122.677 143.987 125.925 121.807 125.925C99.625 125.925 75.5744 122.676 54.0048 114.962C46.2635 112.194 38.7366 108.855 31.3907 104.458C25.4471 100.9 19.8493 96.8485 14.6446 91.4533C10.7551 87.4203 7.41593 83.1036 4.85562 77.2759C2.90641 72.8394 1.81714 68.5298 1.81714 63.2633C1.81714 57.9974 2.90641 53.6879 4.85582 49.2513C7.41611 43.4233 10.7553 39.106 14.645 35.074C19.8499 29.6777 25.4478 25.6262 31.3914 22.0686C38.7378 17.6717 46.2648 14.3334 54.0061 11.5642C75.5759 3.85023 99.6253 0.601929 121.807 0.601929C143.988 0.601929 168.038 3.85023 189.608 11.5649C197.35 14.334 204.876 17.6724 212.222 22.0692C218.166 25.6268 223.764 29.6784 228.968 35.074C232.859 39.106 236.197 43.4233 238.758 49.2513C240.705 53.6879 241.797 57.9974 241.797 63.2633Z" fill="#100F0D"/>
<path d="M222.714 84.7595C207.427 97.2692 190.495 105.553 172.878 109.141C168.133 110.107 163.83 109.592 159.281 107.513C157.305 106.609 155.328 105.705 153.351 104.802C150.301 103.408 147.284 102.737 144.068 102.737C129.227 102.737 114.386 102.737 99.5445 102.737C96.3289 102.737 93.3116 103.408 90.2619 104.802C88.2849 105.705 86.3084 106.609 84.3319 107.513C79.7825 109.592 75.4796 110.107 70.7354 109.141C53.1181 105.553 36.186 97.2692 20.8989 84.7595C16.128 80.8549 13.9439 72.9744 15.6234 65.7212C17.7892 56.3688 20.833 47.9791 24.9676 39.9639C29.1749 31.8082 35.2222 25.769 42.1807 22.7734C94.0437 0.450168 149.569 0.450168 201.432 22.7734C208.391 25.769 214.438 31.8082 218.645 39.9639C222.78 47.9791 225.824 56.3688 227.99 65.7212C229.669 72.9744 227.485 80.8549 222.714 84.7595ZM238.758 49.2513C236.197 43.4236 232.859 39.106 228.968 35.074C223.764 29.6784 218.166 25.6268 212.222 22.0692C204.876 17.6723 197.349 14.334 189.608 11.5649C168.038 3.85023 143.988 0.601929 121.807 0.601929C99.6253 0.601929 75.5759 3.85023 54.0061 11.5642C46.2648 14.3334 38.7378 17.6717 31.3914 22.0686C25.4478 25.6262 19.8499 29.6777 14.645 35.074C10.7553 39.106 7.41611 43.4236 4.85582 49.2513C2.90641 53.6879 1.81714 57.9974 1.81714 63.2636C1.81714 68.5298 2.90641 72.8394 4.85562 77.2759C7.41593 83.1036 10.7551 87.4203 14.6446 91.4533C19.8493 96.8485 25.4471 100.9 31.3907 104.458C38.7366 108.855 46.2635 112.194 54.0048 114.962C75.5744 122.677 99.625 125.925 121.807 125.925C143.987 125.925 168.037 122.677 189.607 114.962C197.348 112.194 204.875 108.856 212.222 104.458C218.165 100.901 223.763 96.8495 228.968 91.4533C232.856 87.4209 236.197 83.1036 238.758 77.2759C240.705 72.8394 241.797 68.5298 241.797 63.2636C241.797 57.9974 240.705 53.6879 238.758 49.2513Z" fill="url(#paint0_linear_121_128)"/>
<path d="M218.446 82.0548C203.854 93.1783 188.973 100.268 172.488 103.95C168.044 104.943 164.027 104.5 159.757 102.549C157.72 101.618 155.684 100.687 153.646 99.7558C151.11 98.5964 148.586 97.9877 145.913 97.8911C137.878 97.6 129.844 97.4538 121.807 97.4538C113.769 97.4538 105.735 97.6 97.7008 97.8911C95.0274 97.9877 92.5037 98.5964 89.9669 99.7558C87.9299 100.687 85.8934 101.618 83.8567 102.549C79.5866 104.5 75.5694 104.943 71.126 103.95C54.6408 100.268 39.7596 93.1783 25.1675 82.0548C21.4089 79.1889 19.7578 72.9816 21.2909 67.4803C23.9719 57.8604 27.3509 48.9577 31.56 40.4245C34.7563 33.9433 39.3906 29.0401 44.7786 26.4388C89.351 4.92073 154.263 4.92073 198.835 26.4388C204.223 29.0401 208.857 33.9433 212.054 40.4245C216.263 48.9577 219.641 57.8604 222.323 67.4803C223.856 72.9816 222.205 79.1889 218.446 82.0548ZM227.99 65.8325C225.824 56.48 222.78 48.0893 218.646 40.0745C214.438 31.9193 208.391 25.88 201.433 22.8844C149.57 0.560513 94.0439 0.560513 42.181 22.8844C35.2223 25.88 29.1753 31.9193 24.9677 40.0745C20.8333 48.0893 17.7894 56.48 15.6237 65.8325C13.9442 73.0847 16.1283 80.9658 20.8992 84.8701C36.1864 97.3804 53.1182 105.664 70.7358 109.252C75.4797 110.218 79.7829 109.702 84.3323 107.623C86.3085 106.719 88.2858 105.817 90.2623 104.913C93.3117 103.519 96.3293 102.847 99.5454 102.847C114.386 102.847 129.227 102.847 144.069 102.847C147.284 102.847 150.302 103.519 153.352 104.913C155.328 105.817 157.305 106.719 159.281 107.623C163.83 109.702 168.134 110.218 172.878 109.252C190.495 105.664 207.427 97.3804 222.714 84.8701C227.485 80.9658 229.67 73.0847 227.99 65.8325Z" fill="url(#paint1_linear_121_128)"/>
<path d="M164.761 85.0826C157.636 85.0826 151.84 77.15 151.84 67.3997V48.4604C151.84 38.7106 157.636 30.778 164.761 30.778H198.213C200.123 30.778 201.677 32.9041 201.677 35.5176V47.8572H173.859C171.142 47.8572 168.93 50.883 168.93 54.6028V61.2584C168.93 64.9772 171.142 68.003 173.859 68.003H201.677V80.3429C201.677 82.9565 200.123 85.0826 198.213 85.0826H164.761Z" fill="url(#paint2_linear_121_128)"/>
<path d="M200.744 80.3435C200.744 76.6551 200.744 72.968 200.744 69.2796C191.783 69.2796 182.821 69.2796 173.859 69.2796C170.623 69.2796 167.998 65.6885 167.998 61.2591C167.998 59.0403 167.998 56.8215 167.998 54.6037C167.998 50.1733 170.623 46.5822 173.859 46.5822C182.821 46.5822 191.783 46.5822 200.744 46.5822C200.744 42.8948 200.744 39.2063 200.744 35.5183C200.744 33.6057 199.611 32.0551 198.213 32.0551C187.063 32.0551 175.912 32.0551 164.762 32.0551C158.141 32.0551 152.773 39.4007 152.773 48.4618C152.773 54.7749 152.773 61.0873 152.773 67.4004C152.773 76.4618 158.141 83.8073 164.762 83.8073C175.912 83.8073 187.063 83.8073 198.213 83.8073C199.611 83.8073 200.744 82.2561 200.744 80.3435Z" fill="url(#paint3_linear_121_128)"/>
<path d="M134.493 85.0826C131.86 85.0826 129.442 82.9713 128.332 79.7042L121.242 58.8291H119.046L111.956 79.7042C110.846 82.9713 108.428 85.0826 105.796 85.0826H90.574L107.192 36.157C108.302 32.8891 110.72 30.778 113.352 30.778H126.936C129.568 30.778 131.986 32.8891 133.096 36.157L149.714 85.0826H134.493Z" fill="url(#paint4_linear_121_128)"/>
<path d="M129.177 79.1666C130.139 81.9967 132.212 83.8073 134.492 83.8073C139.079 83.8073 143.665 83.8073 148.252 83.8073C142.918 68.1027 137.584 52.3988 132.25 36.6952C131.289 33.8647 129.216 32.0551 126.935 32.0551C122.407 32.0551 117.88 32.0551 113.352 32.0551C111.072 32.0551 108.998 33.8647 108.037 36.6952C102.703 52.3988 97.3693 68.1027 92.0352 83.8073C96.622 83.8073 101.208 83.8073 105.795 83.8073C108.075 83.8073 110.149 81.9967 111.11 79.1666C113.557 71.9626 116.004 64.7582 118.451 57.5541C119.579 57.5541 120.708 57.5541 121.836 57.5541C124.283 64.7582 126.73 71.9626 129.177 79.1666Z" fill="url(#paint5_linear_121_128)"/>
<path d="M42.0742 85.0826C40.1643 85.0826 38.6106 82.9565 38.6106 80.3429V68.003H65.8951C68.9068 68.003 71.3564 64.6501 71.3564 60.5292V51.3212C71.3564 49.411 70.2212 47.8572 68.8255 47.8572H48.7022V35.5176C48.7022 32.9041 50.2557 30.778 52.1656 30.778H84.9837C86.8933 30.778 88.447 32.9041 88.447 35.5176V67.3997C88.447 77.15 82.6506 85.0826 75.5262 85.0826H42.0742Z" fill="url(#paint6_linear_121_128)"/>
<path d="M39.5427 80.3435C39.5427 82.2561 40.6757 83.8073 42.0736 83.8073C53.2244 83.8073 64.3751 83.8073 75.5259 83.8073C82.1471 83.8073 87.5143 76.4618 87.5143 67.4004C87.5143 56.7733 87.5143 46.146 87.5143 35.5183C87.5143 33.6057 86.3808 32.0551 84.9834 32.0551C74.044 32.0551 63.1044 32.0551 52.1652 32.0551C50.7676 32.0551 49.6344 33.6057 49.6344 35.5183C49.6344 39.2063 49.6344 42.8948 49.6344 46.5822C56.0313 46.5822 62.4283 46.5822 68.8252 46.5822C70.7383 46.5822 72.2885 48.7043 72.2885 51.3219C72.2885 54.3912 72.2885 57.4602 72.2885 60.5298C72.2885 65.3625 69.4263 69.2796 65.8948 69.2796C57.1107 69.2796 48.3268 69.2796 39.5427 69.2796C39.5427 72.968 39.5427 76.6551 39.5427 80.3435Z" fill="url(#paint7_linear_121_128)"/>
<defs>
<linearGradient id="paint0_linear_121_128" x1="121.807" y1="-0.189079" x2="121.807" y2="123.287" gradientUnits="userSpaceOnUse">
<stop stop-color="#E0DAD5"/>
<stop offset="0.264045" stop-color="#87838B"/>
<stop offset="0.522472" stop-color="#F6F7F7"/>
<stop offset="0.876404" stop-color="#7A757D"/>
<stop offset="1" stop-color="#D3D4D3"/>
</linearGradient>
<linearGradient id="paint1_linear_121_128" x1="121.807" y1="101.528" x2="121.807" y2="6.93811" gradientUnits="userSpaceOnUse">
<stop stop-color="#E0DAD5"/>
<stop offset="0.264045" stop-color="#87838B"/>
<stop offset="0.522472" stop-color="#F6F7F7"/>
<stop offset="0.876404" stop-color="#7A757D"/>
<stop offset="1" stop-color="#D3D4D3"/>
</linearGradient>
<linearGradient id="paint2_linear_121_128" x1="176.758" y1="30.4648" x2="176.758" y2="89.6855" gradientUnits="userSpaceOnUse">
<stop stop-color="#E0DAD5"/>
<stop offset="0.264045" stop-color="#87838B"/>
<stop offset="0.522472" stop-color="#F6F7F7"/>
<stop offset="0.876404" stop-color="#7A757D"/>
<stop offset="1" stop-color="#D3D4D3"/>
</linearGradient>
<linearGradient id="paint3_linear_121_128" x1="176.759" y1="13.7449" x2="176.759" y2="97.0879" gradientUnits="userSpaceOnUse">
<stop stop-color="#E0DAD5"/>
<stop offset="0.264045" stop-color="#87838B"/>
<stop offset="0.522472" stop-color="#F6F7F7"/>
<stop offset="0.876404" stop-color="#7A757D"/>
<stop offset="1" stop-color="#D3D4D3"/>
</linearGradient>
<linearGradient id="paint4_linear_121_128" x1="120.144" y1="30.4648" x2="120.144" y2="89.6855" gradientUnits="userSpaceOnUse">
<stop stop-color="#E0DAD5"/>
<stop offset="0.264045" stop-color="#87838B"/>
<stop offset="0.522472" stop-color="#F6F7F7"/>
<stop offset="0.876404" stop-color="#7A757D"/>
<stop offset="1" stop-color="#D3D4D3"/>
</linearGradient>
<linearGradient id="paint5_linear_121_128" x1="120.144" y1="13.7449" x2="120.144" y2="97.0879" gradientUnits="userSpaceOnUse">
<stop stop-color="#E0DAD5"/>
<stop offset="0.264045" stop-color="#87838B"/>
<stop offset="0.522472" stop-color="#F6F7F7"/>
<stop offset="0.876404" stop-color="#7A757D"/>
<stop offset="1" stop-color="#D3D4D3"/>
</linearGradient>
<linearGradient id="paint6_linear_121_128" x1="63.5287" y1="30.4648" x2="63.5287" y2="89.6855" gradientUnits="userSpaceOnUse">
<stop stop-color="#E0DAD5"/>
<stop offset="0.264045" stop-color="#87838B"/>
<stop offset="0.522472" stop-color="#F6F7F7"/>
<stop offset="0.876404" stop-color="#7A757D"/>
<stop offset="1" stop-color="#D3D4D3"/>
</linearGradient>
<linearGradient id="paint7_linear_121_128" x1="63.5284" y1="13.7449" x2="63.5284" y2="97.0879" gradientUnits="userSpaceOnUse">
<stop stop-color="#E0DAD5"/>
<stop offset="0.264045" stop-color="#87838B"/>
<stop offset="0.522472" stop-color="#F6F7F7"/>
<stop offset="0.876404" stop-color="#7A757D"/>
<stop offset="1" stop-color="#D3D4D3"/>
</linearGradient>
</defs>
</svg>
