<svg width="350" height="65" viewBox="0 0 350 65" fill="none" xmlns="http://www.w3.org/2000/svg">
<path d="M46.8771 28.575C60.598 29.5575 74.3853 30.3275 83.236 30.3275C92.0843 30.3275 105.872 29.5575 119.595 28.5775L120.43 5.80002C108.758 5.66002 95.7399 5.52002 83.1719 5.52002C70.6039 5.52002 57.6471 5.59002 45.9118 5.80002L46.8725 28.575H46.8771ZM0.640523 24.72C1.02712 24.72 22.4435 26.7525 44.6307 28.365L43.734 5.80002C24.1752 6.08002 8.65621 6.64002 5.64346 7.48002C0.770915 8.74252 0.0640523 12.95 0 15.75C0 17.0825 0 20.6575 0.320261 24.72H0.640523ZM121.905 28.365C144.092 26.7525 165.509 24.72 165.895 24.72H166.152C166.472 20.6575 166.472 17.0825 166.472 15.75C166.408 12.9475 165.765 8.74252 160.828 7.48002C157.813 6.71002 142.297 6.15002 122.738 5.80002L121.905 28.365ZM121.775 30.8875L119.915 54.4375C131.138 52.2625 141.334 49.95 145.502 48.6875C154.737 46.025 160.444 43.0825 163.393 37.265C164.674 34.7425 165.445 30.9575 165.829 27.245C163.777 27.385 143.065 29.345 121.775 30.8875ZM119.467 31.0275C105.743 32.01 92.0843 32.78 83.236 32.78C74.3853 32.78 60.7261 32.01 47.0052 31.03L48.865 54.855C61.7533 57.3075 75.6686 59.48 83.236 59.48C90.8033 59.48 104.716 57.3075 117.607 54.855L119.467 31.0275ZM44.7611 30.8875C30.0448 29.8135 15.3374 28.5993 0.640523 27.245C1.09118 30.9575 1.79575 34.8125 3.07908 37.265C6.09183 43.0825 11.7353 46.025 20.968 48.69C25.1382 49.88 35.334 52.265 46.5546 54.435L44.7611 30.8875ZM187.632 43.5025C186.579 43.4966 185.571 43.0369 184.827 42.2234C184.082 41.4098 183.662 40.3081 183.656 39.1575V21.5C183.656 19.1175 185.452 17.155 187.632 17.155H215.399V21.71H188.211V39.09H210.846V32.715H194.431V28.1575H215.335V43.645H187.632V43.505V43.5025ZM226.237 43.5025C225.184 43.4966 224.176 43.0369 223.432 42.2234C222.687 41.4098 222.267 40.3081 222.261 39.1575V17.0825H253.105V21.6375H226.814V28.0125H252.4V32.57H226.814V38.9475H253.105V43.5025H226.237ZM300.623 43.5025C299.57 43.4966 298.562 43.0369 297.817 42.2234C297.073 41.4098 296.652 40.3081 296.647 39.1575V17.0825H301.199V39.0175H323.965V43.5725H300.623V43.5025ZM263.365 43.5025C262.312 43.4966 261.304 43.0369 260.559 42.2234C259.815 41.4098 259.394 40.3081 259.389 39.1575V17.0825H290.235V21.6375H263.943V28.0125H289.53V32.57H263.943V38.9475H290.235V43.5025H263.365ZM330.441 43.5025V33.41L315.501 17.0825H321.401L332.749 29.4175L344.1 17.0825H350L335.058 33.41V43.5025H330.441Z" fill="#303E48"/>
</svg>
